/* XPM */
static char * qewextensibledialog_xpm[] = {
"22 22 114 2",
"  	c None",
". 	c #2C2C2C",
"+ 	c #262626",
"@ 	c #252525",
"# 	c #191919",
"$ 	c #000000",
"% 	c #242424",
"& 	c #232323",
"* 	c #9BBD32",
"= 	c #98BB2C",
"- 	c #98BC2C",
"; 	c #9ABE2C",
"> 	c #8DB51D",
", 	c #2BA5E6",
"' 	c #29B4F4",
") 	c #2ABFFB",
"! 	c #2BC4FD",
"~ 	c #11A9F6",
"{ 	c #FD2B2B",
"] 	c #FC1C1C",
"^ 	c #89B21D",
"/ 	c #8CB41D",
"( 	c #8DB61D",
"_ 	c #698B1D",
": 	c #1F81C9",
"< 	c #1C93DE",
"[ 	c #1C9EEA",
"} 	c #1CA4EF",
"| 	c #1C68AB",
"1 	c #EF1C1C",
"2 	c #AB1C1C",
"3 	c #90B81D",
"4 	c #87AE1D",
"5 	c #2D3B00",
"6 	c #161616",
"7 	c #91BB1D",
"8 	c #94BD1D",
"9 	c #99C21F",
"0 	c #A3C927",
"a 	c #A8CC2C",
"b 	c #AACE2C",
"c 	c #ACD12C",
"d 	c #AED32C",
"e 	c #B1D52C",
"f 	c #B4D82C",
"g 	c #B5DA2C",
"h 	c #B7DC2C",
"i 	c #BADE2C",
"j 	c #B1DA1D",
"k 	c #9BC02C",
"l 	c #96C01D",
"m 	c #99C31D",
"n 	c #9BC51D",
"o 	c #9EC81D",
"p 	c #A0CB1D",
"q 	c #A3CC1D",
"r 	c #A5CF1D",
"s 	c #A9D21D",
"t 	c #ABD51D",
"u 	c #749126",
"v 	c #010101",
"w 	c #9EC22C",
"x 	c #E9AEC2",
"y 	c #E775E0",
"z 	c #9FC32C",
"A 	c #E4C5B5",
"B 	c #E675D9",
"C 	c #E775DA",
"D 	c #A2C52C",
"E 	c #E175D8",
"F 	c #E375D7",
"G 	c #E475D8",
"H 	c #E475D9",
"I 	c #E675DA",
"J 	c #E775DC",
"K 	c #E875DD",
"L 	c #E975DE",
"M 	c #EA75E0",
"N 	c #E075D5",
"O 	c #A4C82C",
"P 	c #E674DF",
"Q 	c #E674E0",
"R 	c #E874E2",
"S 	c #E370DF",
"T 	c #E974E3",
"U 	c #E99BD0",
"V 	c #D089B5",
"W 	c #A6CB2C",
"X 	c #D089B8",
"Y 	c #AAD41D",
"Z 	c #ABD51E",
"` 	c #ACD520",
" .	c #ACD522",
"..	c #ADD523",
"+.	c #B0D723",
"@.	c #B1D823",
"#.	c #799929",
"$.	c #0F0F0F",
"%.	c #9EC71D",
"&.	c #65871D",
"*.	c #67881D",
"=.	c #6C8D1D",
"-.	c #6D8F1D",
";.	c #6E911D",
">.	c #70941D",
",.	c #72951D",
"'.	c #74981D",
").	c #75991D",
"!.	c #769B1D",
"~.	c #789E1D",
"{.	c #78952D",
"].	c #799E21",
"^.	c #64831F",
"/.	c #020202",
"                                            ",
"                                            ",
"                                            ",
"                                            ",
"                                            ",
". + @ @ @ # $ % & % @ @ # $ @ @ @ # $       ",
"+ * = - ; > $ , ' ) ! ! ~ $ { { { ] $       ",
"@ = ^ / ( _ $ : < [ } } | $ 1 1 1 2 $       ",
"@ - / ( 3 4 5 6 @ @ @ @ @ @ @ @ @ # $       ",
"@ ; ( 3 7 8 9 0 a b c d e f g h i j $       ",
"@ k 3 7 8 l m n o p q r s t 6 6 6 u v       ",
"@ w 7 8 l m n 6 6 6 6 6 6 6 6 x y 6 6       ",
"@ z 8 l m n o 6 x y y y y y y A B C y 6 6   ",
"@ D l m n o p 6 x E F G H I I J J K L M N 6 ",
"@ O m n o p q 6 x P Q Q R S T U x R V 6 6 6 ",
"@ W n o p q r 6 6 6 6 6 6 6 6 x X 6 6       ",
"@ a o p q r s Y Z `  ...+.@.6 6 6 #.$.      ",
"# %.&.*._ =.-.;.>.,.'.).!.~.~.{.].^./.      ",
"$ $ $ $ $ $ $ $ $ $ $ $ $ $ $ $ $ $ $       ",
"                                            ",
"                                            ",
"                                            "};
